<svg width="80" height="50" viewBox="0 0 268 123" fill="none" xmlns="http://www.w3.org/2000/svg">
<g clip-path="url(#Theme-Light-Principles-You-Lockup-Stacked-With-Tagline-Full-Color-clip0)">
<path d="M59.9627 31.6879L41.8841 50.7699L24.0527 31.9446L42.1267 12.8672L59.9627 31.6879Z" fill="#E71313"/>
<path d="M35.91 55.9652L18.0647 74.7999L0 55.7272L17.8407 36.8926L35.91 55.9652Z" fill="black"/>
<path d="M83.9979 56.2887L66.1573 75.1234L48.0879 56.0554L65.9332 37.2207L83.9979 56.2887Z" fill="black"/>
<path d="M59.9627 80.3012L42.1173 99.1359L24.0527 80.0632L41.8934 61.2285L59.9627 80.3012Z" fill="black"/>
<g clip-path="url(#Theme-Light-Principles-You-Lockup-Stacked-With-Tagline-Full-Color-clip1)">
<path d="M102 44.082H110.777L120.193 60.934L129.574 44.082H138.232L124.259 69.8304V87.0194H116.029V69.8304L102 44.082Z" fill="black"/>
<path d="M159.233 43C165.307 43 170.531 45.1978 174.906 49.6003C179.28 53.9959 181.464 59.3604 181.464 65.6869C181.464 71.9502 179.308 77.2586 174.997 81.598C170.686 85.9373 165.447 88.107 159.296 88.107C152.851 88.107 147.493 85.8812 143.231 81.4224C138.969 76.9637 136.827 71.6694 136.827 65.5324C136.827 61.4248 137.817 57.6471 139.804 54.2065C141.791 50.7589 144.523 48.0345 147.999 46.0193C151.474 44.0041 155.224 43 159.233 43ZM159.142 50.9976C155.168 50.9976 151.825 52.3809 149.122 55.1404C146.412 57.9069 145.064 61.4178 145.064 65.6799C145.064 70.4265 146.77 74.1831 150.175 76.9496C152.822 79.1123 155.863 80.1866 159.289 80.1866C163.165 80.1866 166.466 78.7823 169.197 75.9806C171.928 73.179 173.291 69.7244 173.291 65.6167C173.291 61.5301 171.914 58.0684 169.169 55.2387C166.423 52.409 163.081 50.9976 159.142 50.9976Z" fill="black"/>
<path d="M212.654 44.0812C212.654 44.0812 212.654 58.0894 212.654 68.7553C212.654 80.1865 205.401 80.3129 204.397 80.3129C203.393 80.3129 196.125 80.1865 196.125 68.7553C196.125 58.0964 196.125 44.0812 196.125 44.0812L187.924 44.0742C187.924 44.0742 187.924 58.0613 187.924 65.5745C187.924 73.0876 187.973 88.0999 204.397 88.0999C220.82 88.0999 220.869 73.0876 220.869 65.5745C220.869 58.0613 220.869 44.0742 220.869 44.0742L212.654 44.0812Z" fill="black"/>
</g>
<path d="M102 11.538H106.272C108.583 11.538 110.246 11.7561 111.263 12.1924C112.289 12.6189 113.094 13.3169 113.679 14.2863C114.274 15.246 114.571 16.3997 114.571 17.7471C114.571 19.24 114.182 20.4809 113.406 21.4697C112.639 22.4585 111.594 23.1468 110.27 23.5346C109.494 23.7575 108.079 23.869 106.027 23.869V32.9282H102V11.538ZM106.027 19.8992H107.307C108.314 19.8992 109.014 19.8265 109.407 19.6811C109.8 19.5357 110.107 19.2982 110.328 18.9686C110.558 18.6293 110.673 18.2222 110.673 17.7471C110.673 16.9231 110.357 16.3221 109.724 15.944C109.263 15.6629 108.41 15.5223 107.164 15.5223H106.027V19.8992Z" fill="#E71313"/>
<path d="M120.406 11.538H124.678C127.018 11.538 128.681 11.7513 129.669 12.1778C130.666 12.5947 131.467 13.2927 132.071 14.2718C132.675 15.2509 132.977 16.4093 132.977 17.7471C132.977 19.1528 132.641 20.3306 131.97 21.2807C131.309 22.221 130.307 22.9335 128.964 23.4182L133.969 32.9282H129.568L124.807 23.869H124.433V32.9282H120.406V11.538ZM124.433 19.8992H125.699C126.984 19.8992 127.866 19.7296 128.346 19.3903C128.835 19.051 129.079 18.4887 129.079 17.7035C129.079 17.2382 128.959 16.8359 128.72 16.4966C128.48 16.1476 128.159 15.9004 127.756 15.755C127.353 15.5999 126.615 15.5223 125.541 15.5223H124.433V19.8992Z" fill="#E71313"/>
<path d="M138.539 11.538H142.538V32.9282H138.539V11.538Z" fill="#E71313"/>
<path d="M148.704 11.538H152.558L161.634 25.614V11.538H165.661V32.9282H161.792L152.731 18.8959V32.9282H148.704V11.538Z" fill="#E71313"/>
<path d="M191.547 15.3042L188.728 18.0234C186.81 15.978 184.653 14.9552 182.255 14.9552C180.232 14.9552 178.525 15.6532 177.135 17.0492C175.754 18.4451 175.064 20.1658 175.064 22.2113C175.064 23.6363 175.371 24.9014 175.984 26.0066C176.598 27.1117 177.466 27.9793 178.588 28.6095C179.71 29.2396 180.956 29.5546 182.327 29.5546C183.497 29.5546 184.566 29.3365 185.535 28.9003C186.503 28.4544 187.567 27.6497 188.728 26.4864L191.461 29.3656C189.898 30.907 188.421 31.9782 187.031 32.5792C185.64 33.1706 184.053 33.4662 182.27 33.4662C178.981 33.4662 176.286 32.4144 174.186 30.3108C172.096 28.1975 171.051 25.4928 171.051 22.1968C171.051 20.064 171.526 18.1688 172.475 16.5111C173.434 14.8534 174.8 13.5205 176.574 12.5123C178.358 11.5041 180.275 11 182.327 11C184.072 11 185.75 11.3732 187.361 12.1197C188.982 12.8661 190.377 13.9276 191.547 15.3042Z" fill="#E71313"/>
<path d="M196.404 11.538H200.403V32.9282H196.404V11.538Z" fill="#E71313"/>
<path d="M206.54 11.538H210.812C213.123 11.538 214.786 11.7561 215.803 12.1924C216.829 12.6189 217.634 13.3169 218.219 14.2863C218.814 15.246 219.111 16.3997 219.111 17.7471C219.111 19.24 218.723 20.4809 217.946 21.4697C217.179 22.4585 216.134 23.1468 214.81 23.5346C214.034 23.7575 212.619 23.869 210.567 23.869V32.9282H206.54V11.538ZM210.567 19.8992H211.847C212.854 19.8992 213.554 19.8265 213.947 19.6811C214.34 19.5357 214.647 19.2982 214.868 18.9686C215.098 18.6293 215.213 18.2222 215.213 17.7471C215.213 16.9231 214.897 16.3221 214.264 15.944C213.803 15.6629 212.95 15.5223 211.704 15.5223H210.567V19.8992Z" fill="#E71313"/>
<path d="M224.673 11.538H228.7V29.0457H234.568V32.9282H224.673V11.538Z" fill="#E71313"/>
<path d="M239.268 11.538H250.817V15.5223H243.266V19.3903H250.817V23.3019H243.266V28.9294H250.817V32.9282H239.268V11.538Z" fill="#E71313"/>
<path d="M267.282 14.4463L264.304 17.1073C263.259 15.6338 262.195 14.8971 261.111 14.8971C260.584 14.8971 260.152 15.0425 259.817 15.3333C259.481 15.6144 259.313 15.9343 259.313 16.293C259.313 16.6517 259.433 16.991 259.673 17.3109C259.999 17.7374 260.982 18.6535 262.622 20.0592C264.156 21.3582 265.086 22.1774 265.412 22.5167C266.227 23.3504 266.802 24.1501 267.138 24.916C267.483 25.6721 267.656 26.501 267.656 27.4025C267.656 29.1572 267.056 30.6065 265.858 31.7504C264.659 32.8943 263.096 33.4662 261.169 33.4662C259.663 33.4662 258.35 33.093 257.228 32.3466C256.116 31.6001 255.162 30.4271 254.366 28.8276L257.746 26.7627C258.762 28.6531 259.932 29.5983 261.255 29.5983C261.946 29.5983 262.526 29.3947 262.996 28.9875C263.465 28.5804 263.7 28.1102 263.7 27.577C263.7 27.0923 263.523 26.6076 263.168 26.1229C262.813 25.6382 262.032 24.8966 260.824 23.8981C258.522 21.998 257.036 20.5342 256.365 19.5066C255.694 18.4694 255.358 17.4369 255.358 16.4093C255.358 14.9261 255.914 13.6562 257.027 12.5995C258.148 11.5332 259.529 11 261.169 11C262.224 11 263.226 11.2472 264.175 11.7416C265.134 12.236 266.169 13.1376 267.282 14.4463Z" fill="#E71313"/>
<path fill-rule="evenodd" clip-rule="evenodd" d="M102 100.715H124.23V99H102V100.715Z" fill="black"/>
<path d="M102 109.258H107.126V110.735H103.489V113.245H107.126V114.723H103.489V119.556H102V109.258Z" fill="#E71313"/>
<path d="M112.08 109.258C113.216 109.258 114.084 109.507 114.686 110.004C115.287 110.492 115.588 111.199 115.588 112.127C115.588 112.911 115.349 113.537 114.872 114.006C114.395 114.465 113.722 114.756 112.853 114.88L115.888 119.556H114.17L111.235 114.995H110.82V119.556H109.302V109.258H112.08ZM112.18 113.518C112.791 113.518 113.259 113.403 113.583 113.174C113.908 112.935 114.07 112.581 114.07 112.112C114.07 111.682 113.917 111.347 113.612 111.108C113.316 110.86 112.867 110.735 112.266 110.735H110.82V113.518H112.18Z" fill="#E71313"/>
<path d="M122.691 119.8C121.679 119.8 120.758 119.561 119.927 119.083C119.106 118.595 118.457 117.94 117.98 117.118C117.512 116.296 117.279 115.397 117.279 114.422C117.279 113.418 117.517 112.504 117.994 111.682C118.481 110.85 119.13 110.195 119.942 109.717C120.762 109.239 121.66 109 122.633 109C123.616 109 124.518 109.239 125.339 109.717C126.17 110.186 126.828 110.836 127.315 111.668C127.802 112.49 128.045 113.408 128.045 114.422C128.045 115.416 127.807 116.324 127.329 117.147C126.852 117.969 126.203 118.619 125.382 119.097C124.571 119.566 123.674 119.8 122.691 119.8ZM122.662 118.351C123.359 118.351 123.998 118.179 124.581 117.835C125.172 117.491 125.64 117.018 125.984 116.415C126.327 115.813 126.499 115.143 126.499 114.407C126.499 113.68 126.327 113.016 125.984 112.414C125.64 111.811 125.172 111.338 124.581 110.994C123.989 110.64 123.344 110.463 122.648 110.463C121.96 110.463 121.326 110.63 120.743 110.965C120.161 111.3 119.693 111.773 119.34 112.385C118.997 112.987 118.825 113.671 118.825 114.436C118.825 115.182 118.997 115.856 119.34 116.458C119.693 117.051 120.166 117.515 120.758 117.849C121.349 118.184 121.984 118.351 122.662 118.351Z" fill="#E71313"/>
<path d="M141.396 119.556H139.935L138.947 113.088L138.876 112.629L138.704 113.059L135.998 119.556H134.981L132.261 113.059L132.089 112.614L132.003 113.073L131.015 119.556H129.541L131.173 109.258H132.261L135.354 116.688L135.497 117.061L135.64 116.673L138.718 109.258H139.792L141.396 119.556Z" fill="#E71313"/>
<path d="M150.783 109.258C151.918 109.258 152.787 109.507 153.388 110.004C153.99 110.492 154.29 111.199 154.29 112.127C154.29 112.911 154.052 113.537 153.575 114.006C153.097 114.465 152.424 114.756 151.556 114.88L154.591 119.556H152.873L149.938 114.995H149.523V119.556H148.005V109.258H150.783ZM150.883 113.518C151.494 113.518 151.961 113.403 152.286 113.174C152.611 112.935 152.773 112.581 152.773 112.112C152.773 111.682 152.62 111.347 152.315 111.108C152.019 110.86 151.57 110.735 150.969 110.735H149.523V113.518H150.883Z" fill="#E71313"/>
<path d="M163.779 119.556L162.648 116.831H158.21L157.064 119.556H155.489L159.856 109.258H161.002L165.354 119.556H163.779ZM158.825 115.368H162.033L160.429 111.51L158.825 115.368Z" fill="#E71313"/>
<path d="M167.889 114.88L164.725 109.258H166.4L168.662 113.317L170.881 109.258H172.542L169.406 114.88V119.556H167.889V114.88Z" fill="#E71313"/>
<path d="M181.244 109.258C183.162 109.258 184.627 109.698 185.639 110.578C186.651 111.448 187.157 112.739 187.157 114.45C187.157 116.181 186.684 117.467 185.739 118.308C184.794 119.14 183.377 119.556 181.487 119.556H178.738V109.258H181.244ZM181.673 118.079C182.943 118.079 183.916 117.782 184.594 117.19C185.272 116.597 185.61 115.679 185.61 114.436C185.61 113.202 185.233 112.28 184.479 111.668C183.725 111.046 182.675 110.735 181.329 110.735H180.256V118.079H181.673Z" fill="#E71313"/>
<path d="M196.092 119.556L194.961 116.831H190.523L189.377 119.556H187.802L192.169 109.258H193.315L197.667 119.556H196.092ZM191.138 115.368H194.346L192.742 111.51L191.138 115.368Z" fill="#E71313"/>
<path d="M200.83 109.258V118.108H204.209V119.556H199.313V109.258H200.83Z" fill="#E71313"/>
<path d="M206.168 109.258H207.685V119.556H206.168V109.258Z" fill="#E71313"/>
<path d="M215.445 119.8C214.433 119.8 213.512 119.561 212.682 119.083C211.861 118.595 211.212 117.94 210.735 117.118C210.267 116.296 210.033 115.397 210.033 114.422C210.033 113.418 210.272 112.504 210.749 111.682C211.236 110.85 211.885 110.195 212.696 109.717C213.517 109.239 214.414 109 215.388 109C216.371 109 217.273 109.239 218.094 109.717C218.924 110.186 219.583 110.836 220.07 111.668C220.557 112.49 220.8 113.408 220.8 114.422C220.8 115.416 220.561 116.324 220.084 117.147C219.607 117.969 218.958 118.619 218.137 119.097C217.326 119.566 216.428 119.8 215.445 119.8ZM215.417 118.351C216.113 118.351 216.753 118.179 217.335 117.835C217.927 117.491 218.395 117.018 218.738 116.415C219.082 115.813 219.254 115.143 219.254 114.407C219.254 113.68 219.082 113.016 218.738 112.414C218.395 111.811 217.927 111.338 217.335 110.994C216.743 110.64 216.099 110.463 215.402 110.463C214.715 110.463 214.08 110.63 213.498 110.965C212.916 111.3 212.448 111.773 212.095 112.385C211.751 112.987 211.579 113.671 211.579 114.436C211.579 115.182 211.751 115.856 212.095 116.458C212.448 117.051 212.921 117.515 213.512 117.849C214.104 118.184 214.739 118.351 215.417 118.351Z" fill="#E71313"/>
</g>
<defs>
<clipPath id="Theme-Light-Principles-You-Lockup-Stacked-With-Tagline-Full-Color-clip0">
<rect width="268" height="123" fill="white"/>
</clipPath>
<clipPath id="Theme-Light-Principles-You-Lockup-Stacked-With-Tagline-Full-Color-clip1">
<rect width="118.862" height="45.1" fill="white" transform="translate(102 43)"/>
</clipPath>
</defs>
</svg>
